<svg id="Layer_1" data-name="Layer 1" xmlns="http://www.w3.org/2000/svg" width="323.47225mm" height="142.14447mm" viewBox="0 0 916.9292 402.9292">
  <g>
    <rect x="229.03284" y="229.17578" width="17.01471" height="17.01489" fill="#fff"/>
    <rect x="253.78156" y="229.17578" width="17.01477" height="17.01489" fill="#fff"/>
    <rect x="229.03284" y="253.92456" width="17.01471" height="17.01489" fill="#fff"/>
    <rect x="253.78156" y="253.92456" width="17.01477" height="17.01489" fill="#fff"/>
    <polygon points="247.393 120.363 161.009 203.901 186.52 230.361 247.001 172.049 247.393 120.363" fill="#fff"/>
    <path d="M349.16,219.30005l-12.22,8.80981L346.19,216.22l-11.45-11.8999-8.24,5.11987,5.41-8.06006L320.48,189.5l-12.25,8.83008,9.28-11.92017L306.07,174.52l-8.28,5.13989,5.44-8.08984-11.44-11.88013-12.28,8.86011,9.3-11.96021L277.39,144.72l-8.32,5.15991,5.47-8.11987L253.6,120l-.32,51.95,93.67,96.94019,25.85-25.02Zm-3.03,27.75a4.54751,4.54751,0,1,1,6.43.11987A4.53949,4.53949,0,0,1,346.13,247.05005Z" fill="#fff"/>
    <path d="M249.99121,275.89526c-3.60773.0022-7.21545.12183-10.82318.3794a88.73378,88.73378,0,0,0-10.82312,1.37524,88.73381,88.73381,0,0,0,10.82312,1.37525c3.60773.25756,7.21545.37744,10.82318.37939q5.4116.004,10.82318-.37451a87.56635,87.56635,0,0,0,10.82318-1.38013,87.56441,87.56441,0,0,0-10.82318-1.38012Q255.40281,275.88416,249.99121,275.89526Z" fill="#fff"/>
    <path d="M363.72968,261.53931q-3.343,3.24426-6.42615,6.75683a66.31878,66.31878,0,0,0-5.733,7.47193,66.32151,66.32151,0,0,0,7.64734-5.49683q3.61386-2.96522,6.9541-6.2124,3.34807-3.23914,6.4295-6.75342a65.45524,65.45524,0,0,0,5.72968-7.47534,65.4188,65.4188,0,0,0-7.65064,5.49341Q367.067,258.28907,363.72968,261.53931Z" fill="#fff"/>
    <path d="M409.79,210.05005h6.23l7.58,11.28979h9.11l-8.35-12.27978c.3-.12012.6-.26.89-.41016a10.77224,10.77224,0,0,0,4.23-3.87988,10.25032,10.25032,0,0,0,1.56-5.56006,10.0958,10.0958,0,0,0-1.47-5.46,9.81,9.81,0,0,0-4.11-3.6499,13.948,13.948,0,0,0-6.23-1.3H402.26v32.53979h7.53Zm0-14.65015h8.28a6.18793,6.18793,0,0,1,2.6.51,4.473,4.473,0,0,1,1.79,1.44019,3.7197,3.7197,0,0,1,.68,2.23974,4.24837,4.24837,0,0,1-.63,2.3003,4.396,4.396,0,0,1-1.68,1.5498A4.87743,4.87743,0,0,1,418.44,204h-8.65Z" fill="#fff"/>
    <path d="M473.04,192.87012a17.88163,17.88163,0,0,0-5.99-3.56006,22.24071,22.24071,0,0,0-7.65-1.25,21.64423,21.64423,0,0,0-7.58,1.27,18.94175,18.94175,0,0,0-6,3.56006A16.17085,16.17085,0,0,0,445.8,216.97a18.33849,18.33849,0,0,0,6,3.56006,23.525,23.525,0,0,0,15.25.02,17.86367,17.86367,0,0,0,5.99-3.55,16.62212,16.62212,0,0,0,3.91-18.76A16.0105,16.0105,0,0,0,473.04,192.87012Zm-3.55,15.77978a8.98264,8.98264,0,0,1-2.23,3,10.56908,10.56908,0,0,1-3.45,2,13.61776,13.61776,0,0,1-8.74,0,11.19073,11.19073,0,0,1-3.48-1.98,8.109,8.109,0,0,1-2.26-3,9.5822,9.5822,0,0,1,0-7.48,8.27383,8.27383,0,0,1,2.26-3,11.3982,11.3982,0,0,1,3.48-1.98,13.56149,13.56149,0,0,1,8.72,0,10.74257,10.74257,0,0,1,3.47,2,9.19249,9.19249,0,0,1,2.23,3,9.15292,9.15292,0,0,1,0,7.43994Z" fill="#fff"/>
    <polygon points="497.24 221.34 505.19 221.34 505.19 208.03 519.19 188.8 510.21 188.8 501.24 201.52 491.8 188.8 482.32 188.8 497.24 208.22 497.24 221.34" fill="#fff"/>
    <path d="M533.37,188.80005l-14.69,32.53979h7.9l2.65-5.9497h15.15l2.66,5.9497h8.09l-14.65-32.53979Zm-1.49,20.63989,2.74-6.13989c.28-.67993.56-1.34009.84-1.99q.42-.97522.81-1.98c.19995-.5.38995-.99024.55-1.48.15.48.32.96.5,1.42993.25.66992.5,1.34009.77,2,.26.66992.55,1.32983.86,1.98l2.77,6.17993Z" fill="#fff"/>
    <polygon points="571.02 188.8 563.12 188.8 563.12 221.34 589.16 221.34 589.16 214.37 571.02 214.37 571.02 188.8" fill="#fff"/>
    <path d="M411.4,253.75a10.50945,10.50945,0,0,1,3.3-1.85986,11.45018,11.45018,0,0,1,3.83-.65015,13.95284,13.95284,0,0,1,3.86.49,12.65028,12.65028,0,0,1,3.14,1.34009A17.33451,17.33451,0,0,1,428.11,255l4.65-5.95a16.28746,16.28746,0,0,0-3.74-2.65015,21.6462,21.6462,0,0,0-4.82-1.81006,22.06123,22.06123,0,0,0-5.34-.6499,21.829,21.829,0,0,0-7.37,1.21,17.561,17.561,0,0,0-5.95,3.48,17.068,17.068,0,0,0-4,5.3501,15.40306,15.40306,0,0,0-1.47,6.74,16.49694,16.49694,0,0,0,1.4,6.86011,15.75774,15.75774,0,0,0,3.95,5.34985,18.25134,18.25134,0,0,0,5.95,3.46021,21.80353,21.80353,0,0,0,7.4,1.21,20.68314,20.68314,0,0,0,5.6-.75A23.94221,23.94221,0,0,0,429.2,274.97a16.18925,16.18925,0,0,0,3.47-2.34985L428.9,266.53c-.71.55981-1.53,1.13989-2.46,1.75a13.62374,13.62374,0,0,1-3.12,1.48,12.10641,12.10641,0,0,1-3.9.59009,14.44039,14.44039,0,0,1-4.31-.63013,10.93525,10.93525,0,0,1-3.57-1.86011,8.75852,8.75852,0,0,1-2.45-3.02,9.11964,9.11964,0,0,1-.88-4.01977,9.32066,9.32066,0,0,1,.86-4.07007A8.55617,8.55617,0,0,1,411.4,253.75Z" fill="#fff"/>
    <path d="M452.52,244.58984l-14.69,32.54h7.9l2.65-5.95h15.15l2.66,5.95h8.09l-14.65-32.54ZM451.03,265.23l2.74-6.14014c.28-.67993.56-1.33984.84-1.98974q.42-.97523.81-1.98c.2-.5.39-.99024.55-1.48.15.48.32.96.5,1.42993.25.66992.5,1.33984.77,2,.26.66992.55,1.32983.86,1.98l2.77,6.17993Z" fill="#fff"/>
    <path d="M505.26,264.43994a10.77265,10.77265,0,0,0,4.23-3.87988A10.25032,10.25032,0,0,0,511.05,255a10.09459,10.09459,0,0,0-1.47-5.46,9.80981,9.80981,0,0,0-4.11005-3.6499,13.94759,13.94759,0,0,0-6.23-1.3003H482.27v32.54h7.53v-11.29h6.23l7.58,11.29h9.11l-8.35-12.27978C504.67,264.73,504.97,264.58984,505.26,264.43994Zm-15.46-13.25h8.28a6.18406,6.18406,0,0,1,2.6.51,4.40526,4.40526,0,0,1,1.79,1.44019,3.71934,3.71934,0,0,1,.68,2.23974,4.24691,4.24691,0,0,1-.63,2.3,4.39947,4.39947,0,0,1-1.68,1.55,4.88034,4.88034,0,0,1-2.39.56006H489.8Z" fill="#fff"/>
    <path d="M546.13,245.98a11.72261,11.72261,0,0,0-5.74-1.39014H523.14v32.54h7.9V266.53h8.83a12.04916,12.04916,0,0,0,6-1.48,11.47366,11.47366,0,0,0,4.21-4.03,10.7631,10.7631,0,0,0,1.56-5.78,10.17053,10.17053,0,0,0-1.49-5.43994A10.69408,10.69408,0,0,0,546.13,245.98ZM542.76,257.54a4.68362,4.68362,0,0,1-1.75,1.51,5.31353,5.31353,0,0,1-2.44.55981H530.9v-8.0498h7.67a6.171,6.171,0,0,1,2.44.47,4.30471,4.30471,0,0,1,1.75,1.3,3.26244,3.26244,0,0,1,.65,2.0498A3.79048,3.79048,0,0,1,542.76,257.54Z" fill="#fff"/>
    <polygon points="569.91 263.79 586.46 263.79 586.46 257.38 569.91 257.38 569.91 251.33 588.55 251.33 588.55 244.59 562.24 244.59 562.24 277.13 589.01 277.13 589.01 270.39 569.91 270.39 569.91 263.79" fill="#fff"/>
    <path d="M626.12,255.75q0,1.485.06,2.87988c.05.93018.11,1.88013.19,2.84009s.16,1.93994.26,2.95c.05.57007.12,1.16016.2,1.77l-19.22-21.6001h-7.34v32.54h7.67V266.25c0-1.08008-.01-2.08008-.03-2.99-.01-.92017-.05-1.77-.11-2.56006-.07-.79-.13-1.57007-.21-2.34985-.08-.77-.16-1.56006-.26-2.3501-.01-.06006-.01-.12988-.02-.18994l19.04,21.31982h7.44v-32.54h-7.67Z" fill="#fff"/>
    <polygon points="643.22 251.56 654.75 251.56 654.75 277.13 662.66 277.13 662.66 251.56 674.37 251.56 674.37 244.59 643.22 244.59 643.22 251.56" fill="#fff"/>
    <path d="M706.8,264.43994a10.77281,10.77281,0,0,0,4.23-3.87988A10.25083,10.25083,0,0,0,712.59,255a10.09463,10.09463,0,0,0-1.47-5.46,9.80935,9.80935,0,0,0-4.11-3.6499,13.948,13.948,0,0,0-6.23-1.3003H683.81v32.54h7.53v-11.29h6.23l7.58,11.29h9.11l-8.35-12.27978C706.21,264.73,706.51,264.58984,706.8,264.43994Zm-15.46-13.25h8.28a6.18406,6.18406,0,0,1,2.6.51,4.47256,4.47256,0,0,1,1.79,1.44019,3.7193,3.7193,0,0,1,.68,2.23974,4.24691,4.24691,0,0,1-.63,2.3,4.39864,4.39864,0,0,1-1.68,1.55,4.88014,4.88014,0,0,1-2.39.56006h-8.65Z" fill="#fff"/>
    <polygon points="745.46 244.59 736.49 257.3 727.05 244.59 717.56 244.59 732.49 264.01 732.49 277.13 740.44 277.13 740.44 263.82 754.43 244.59 745.46 244.59" fill="#fff"/>
  </g>
</svg>
