<svg id="Layer_1" data-name="Layer 1" xmlns="http://www.w3.org/2000/svg" width="200.00002mm" height="200.00002mm" viewBox="0 0 566.9292 566.9292">
  <g>
    <rect x="256.0802" y="229.1759" width="17.01477" height="17.01477" fill="#fff"/>
    <rect x="280.82886" y="229.1759" width="17.01489" height="17.01477" fill="#fff"/>
    <rect x="256.0802" y="253.92456" width="17.01477" height="17.01489" fill="#fff"/>
    <rect x="280.82886" y="253.92456" width="17.01489" height="17.01489" fill="#fff"/>
    <polygon points="274.048 172.049 274.441 120.363 188.056 203.901 213.568 230.361 274.048 172.049" fill="#fff"/>
    <path d="M399.84009,243.87012,376.2,219.30005,363.99,228.11l9.25-11.89-11.45-11.89-8.24,5.11L358.96,201.39,347.52,189.5l-12.25,8.83,9.28-11.92005L333.11,174.52l-8.27991,5.13989,5.43994-8.08984-11.42993-11.88013-12.28,8.86011L315.86,156.59l-11.43006-11.88L296.12,149.88l5.46008-8.13L280.65,120l-.32995,51.95L374,268.89014Zm-26.55-3.25a4.55087,4.55087,0,1,1-.12012,6.42993A4.54814,4.54814,0,0,1,373.29,240.62012Z" fill="#fff"/>
    <path d="M255.39233,277.6499a88.72957,88.72957,0,0,0,10.82312,1.37525c3.60779.25756,7.21546.37744,10.82312.37939q5.41169.004,10.82325-.37451a87.56881,87.56881,0,0,0,10.82312-1.38013,87.56686,87.56686,0,0,0-10.82312-1.38012q-5.41151-.38562-10.82325-.37452c-3.60766.0022-7.21533.12183-10.82312.3794A88.72954,88.72954,0,0,0,255.39233,277.6499Z" fill="#fff"/>
    <path d="M390.7771,261.53931q-3.343,3.24426-6.42627,6.75683a66.32537,66.32537,0,0,0-5.73291,7.47193,66.32815,66.32815,0,0,0,7.64746-5.49683q3.61377-2.96522,6.9541-6.2124,3.34791-3.23914,6.42945-6.75342a65.43983,65.43983,0,0,0,5.72961-7.47534,65.42373,65.42373,0,0,0-7.65063,5.49341Q394.11432,258.28907,390.7771,261.53931Z" fill="#fff"/>
    <path d="M226.83008,319.22h4L235.7,326.48h5.86011l-5.37012-7.89014q.28509-.11974.57007-.26977a6.88315,6.88315,0,0,0,2.72-2.49,6.58627,6.58627,0,0,0,1-3.57007,6.44332,6.44332,0,0,0-.93994-3.51,6.3535,6.3535,0,0,0-2.64-2.3501,8.97518,8.97518,0,0,0-4.01-.83984H221.98V326.48h4.8501Zm0-9.40991H232.15a4.146,4.146,0,0,1,1.67.31982,2.85935,2.85935,0,0,1,1.1499.93018A2.38324,2.38324,0,0,1,235.4,312.5a2.67838,2.67838,0,0,1-.4,1.47,2.83413,2.83413,0,0,1-1.08008,1.01,3.29887,3.29887,0,0,1-1.53992.3501h-5.54992Z" fill="#fff"/>
    <path d="M249.97,323.66992a11.80521,11.80521,0,0,0,3.86011,2.29A14.01152,14.01152,0,0,0,258.74,326.78a14.21171,14.21171,0,0,0,4.89-.81006,11.39894,11.39894,0,0,0,3.85-2.28,10.21252,10.21252,0,0,0,2.51-3.45,10.857,10.857,0,0,0,0-8.61011,10.02318,10.02318,0,0,0-2.51-3.45,11.41605,11.41605,0,0,0-3.85-2.28979,14.304,14.304,0,0,0-4.92-.81006,13.86455,13.86455,0,0,0-4.86987.82983,11.94435,11.94435,0,0,0-3.8501,2.28,10.07278,10.07278,0,0,0-2.54,3.43994,10.69964,10.69964,0,0,0,0,8.59009A9.99136,9.99136,0,0,0,249.97,323.66992ZM252.24,313.53a5.266,5.266,0,0,1,1.45-1.92993,7.33643,7.33643,0,0,1,2.24-1.27,8.78323,8.78323,0,0,1,5.61011,0,6.91845,6.91845,0,0,1,2.22,1.27978A5.78174,5.78174,0,0,1,265.2,313.54a5.66485,5.66485,0,0,1,.51,2.38989,5.60081,5.60081,0,0,1-.51,2.39014A5.7808,5.7808,0,0,1,263.76,320.25a6.70826,6.70826,0,0,1-2.21,1.29A8.41184,8.41184,0,0,1,258.74,322a8.49811,8.49811,0,0,1-2.81006-.46,7.54939,7.54939,0,0,1-2.24-1.27,5.34834,5.34834,0,0,1-1.45-1.93018,6.14669,6.14669,0,0,1,0-4.80981Z" fill="#fff"/>
    <polygon points="288.15 326.48 288.15 317.92 297.14 305.56 291.38 305.56 285.61 313.73 279.54 305.56 273.45 305.56 283.04 318.04 283.04 326.48 288.15 326.48" fill="#fff"/>
    <path d="M303.6,322.65991h9.7301l1.71,3.82007h5.2l-9.40991-20.91992H306.26l-9.45,20.91992H301.89Zm3.47009-7.76977c.16992-.44019.34985-.87012.52991-1.29.18-.42017.36-.84009.53-1.27.12-.32007.24-.64014.35-.9502.1001.31006.2.61011.32007.92017.15991.42993.32.85986.49,1.28979.16992.42017.35.8501.55,1.27l1.77991,3.97022h-6.30994Z" fill="#fff"/>
    <polygon points="342.12 322 330.46 322 330.46 305.56 325.38 305.56 325.38 326.48 342.12 326.48 342.12 322" fill="#fff"/>
    <path d="M195.64,359.43994,193.22,355.53c-.46.36011-.98.73-1.58,1.11987a9.015,9.015,0,0,1-2,.96,7.85753,7.85753,0,0,1-2.52.37012,9.25788,9.25788,0,0,1-2.76-.3999,7.00256,7.00256,0,0,1-2.29993-1.2002,5.58366,5.58366,0,0,1-1.57007-1.93994,5.76272,5.76272,0,0,1-.57007-2.58984A5.95274,5.95274,0,0,1,180.48,349.24a5.47763,5.47763,0,0,1,1.49-1.92993,6.70425,6.70425,0,0,1,2.12012-1.18994,7.317,7.317,0,0,1,2.47-.42017,9.10233,9.10233,0,0,1,2.48.31006,7.93721,7.93721,0,0,1,2.01.86987,9.969,9.969,0,0,1,1.65991,1.24024L195.7,344.29a10.79041,10.79041,0,0,0-2.3999-1.7002,13.81187,13.81187,0,0,0-3.1001-1.16992A14.5021,14.5021,0,0,0,186.77,341.01a14.02667,14.02667,0,0,0-4.74.77,11.37027,11.37027,0,0,0-3.82007,2.24,10.99484,10.99484,0,0,0-2.58,3.43994,10.05215,10.05215,0,0,0-.94006,4.33008,10.53457,10.53457,0,0,0,.90015,4.40991,10.1387,10.1387,0,0,0,2.53991,3.44019,11.56365,11.56365,0,0,0,3.83,2.21972,13.96235,13.96235,0,0,0,4.75.78028,13.36611,13.36611,0,0,0,3.6001-.48023,15.8589,15.8589,0,0,0,3.10986-1.21A10.5439,10.5439,0,0,0,195.64,359.43994Z" fill="#fff"/>
    <path d="M217.18994,362.33984H222.39l-9.42-20.91992H208.4L198.96,362.33984H204.04l1.7-3.81982h9.74Zm-9.74-7.6499,1.76-3.93994q.27007-.65991.54-1.29c.17993-.41992.35-.83984.52-1.27.13-.31982.24-.63989.35-.95.1.31006.20007.61011.31994.91992.16.42993.33008.86011.5,1.29s.3501.8501.55,1.27l1.78,3.97Z" fill="#fff"/>
    <path d="M247.1,362.33984,241.73,354.45a6.05594,6.05594,0,0,0,.58008-.27,6.95162,6.95162,0,0,0,2.72-2.49,6.67342,6.67342,0,0,0,1-3.56982,6.44951,6.44951,0,0,0-.95-3.51026,6.23447,6.23447,0,0,0-2.64014-2.34985,8.9602,8.9602,0,0,0-4-.84009H227.53v20.91992h4.84v-7.25976h4l4.87,7.25976Zm-14.73-16.66992h5.31994A3.94993,3.94993,0,0,1,239.36,346a2.83648,2.83648,0,0,1,1.15.91992,2.39025,2.39025,0,0,1,.43994,1.43994,2.71877,2.71877,0,0,1-.40991,1.48,2.85522,2.85522,0,0,1-1.07007,1,3.20946,3.20946,0,0,1-1.54.36011H232.37Z" fill="#fff"/>
    <path d="M271.11,351.99a6.96242,6.96242,0,0,0,1.01-3.72,6.52609,6.52609,0,0,0-.96009-3.5,6.93048,6.93048,0,0,0-2.58984-2.45,7.46867,7.46867,0,0,0-3.69007-.90015H253.80005v20.91992H258.88V355.53h5.67005a7.73028,7.73028,0,0,0,3.85986-.96A7.27326,7.27326,0,0,0,271.11,351.99Zm-4.70008-2.24a3.01606,3.01606,0,0,1-1.11987.97,3.42145,3.42145,0,0,1-1.57007.36011H258.79v-5.17017H263.72a3.99525,3.99525,0,0,1,1.57007.3,2.69972,2.69972,0,0,1,1.11987.83008,2.084,2.084,0,0,1,.42017,1.31982A2.4005,2.4005,0,0,1,266.40991,349.75Z" fill="#fff"/>
    <polygon points="296.14 358.01 283.86 358.01 283.86 353.77 294.5 353.77 294.5 349.64 283.86 349.64 283.86 345.76 295.84 345.76 295.84 341.42 278.93 341.42 278.93 362.34 296.14 362.34 296.14 358.01" fill="#fff"/>
    <path d="M324.91992,362.33984V341.41992H319.99v7.18018c0,.62988.01,1.25.04,1.84985.03.6001.07,1.2.12,1.82007s.11,1.25.17005,1.8999c.02991.37012.07995.75.12988,1.14014L308.1,341.41992h-4.73v20.91992h4.93V355.3501c0-.7002,0-1.34009-.01-1.93018-.01-.58984-.04-1.12988-.08008-1.63989s-.08-1.01-.12988-1.51-.1001-1-.16016-1.51c0-.04-.01-.07007-.01-.11011L320.14,362.33984Z" fill="#fff"/>
    <polygon points="343.48 362.34 343.48 345.91 351.01 345.91 351.01 341.42 330.99 341.42 330.99 345.91 338.4 345.91 338.4 362.34 343.48 362.34" fill="#fff"/>
    <path d="M370.79,362.33984h5.86L371.28,354.45q.28491-.11975.57-.27a6.88355,6.88355,0,0,0,2.72009-2.49,6.58646,6.58646,0,0,0,1-3.56982,6.44315,6.44315,0,0,0-.94007-3.51026,6.35383,6.35383,0,0,0-2.64-2.34985,8.97482,8.97482,0,0,0-4.01-.84009H357.07007v20.91992h4.84985v-7.25976h4Zm-8.87012-16.66992H367.24A3.98185,3.98185,0,0,1,368.90991,346a2.83688,2.83688,0,0,1,1.15015.91992,2.385,2.385,0,0,1,.42993,1.43994,2.71352,2.71352,0,0,1-.3999,1.48,2.88383,2.88383,0,0,1-1.08008,1,3.20946,3.20946,0,0,1-1.54.36011h-5.55Z" fill="#fff"/>
    <polygon points="396.7 341.42 390.94 349.6 384.87 341.42 378.77 341.42 388.36 353.9 388.36 362.34 393.47 362.34 393.47 353.79 402.47 341.42 396.7 341.42" fill="#fff"/>
    <polygon points="222.6 413.44 220.32 413.44 220.32 417.08 216.38 417.08 216.38 419.25 220.32 419.25 220.32 422.99 222.6 422.99 222.6 419.25 226.57 419.25 226.57 417.08 222.6 417.08 222.6 413.44" fill="#fff"/>
    <path d="M237.89,410.92993h-2.55993l-6.58008,7.47,1.15991,2.21h5.14014v2.55h2.84v-2.55h2.36V418.24h-2.36Zm-2.84,7.31006h-2.99l2.99-3.49Z" fill="#fff"/>
    <path d="M250.88,410.92993h-2.55993l-6.58008,7.47,1.16,2.21h5.14v2.55h2.84v-2.55h2.36V418.24h-2.36ZM248.04,418.24h-2.99l2.99-3.5Z" fill="#fff"/>
    <polygon points="254.76 410.93 254.76 413.5 260.33 413.5 256.1 423.16 259.04 423.16 263.61 412.33 263.33 410.93 254.76 410.93" fill="#fff"/>
    <polygon points="265.85 410.93 265.85 413.5 271.42 413.5 267.18 423.16 270.12 423.16 274.7 412.33 274.42 410.93 265.85 410.93" fill="#fff"/>
    <path d="M285.82007,416.48a4.42537,4.42537,0,0,0-1.31006-.78,3.92172,3.92172,0,0,0-1.01-.24l3.23-3.08984-.55-1.44019H277.76v2.48l5.03.08008-2.93,2.84985.71008,1.62012a3.42706,3.42706,0,0,1,.48-.17993,4.42938,4.42938,0,0,1,.54993-.12012,3.68209,3.68209,0,0,1,.57995-.03979,3.18945,3.18945,0,0,1,1.04.15991,2.06153,2.06153,0,0,1,.82007.5,1.29428,1.29428,0,0,1,.32.90991,1.39256,1.39256,0,0,1-.34.96,2.0193,2.0193,0,0,1-.87.56006,3.65722,3.65722,0,0,1-1.16.18018,2.83322,2.83322,0,0,1-1.22-.25,3.67426,3.67426,0,0,1-.98-.66016,5.40166,5.40166,0,0,1-.77-.89014l-2.11011,1.51026a6.35679,6.35679,0,0,0,2.11011,2.02978,5.85219,5.85219,0,0,0,2.95.7002,6.12242,6.12242,0,0,0,2.57007-.53,4.6906,4.6906,0,0,0,1.84-1.49,3.71808,3.71808,0,0,0,.68006-2.18994,3.32287,3.32287,0,0,0-.33008-1.46021A3.601,3.601,0,0,0,285.82007,416.48Z" fill="#fff"/>
    <path d="M297.06006,415.41992a4.66361,4.66361,0,0,0-2.22-.52,5.52183,5.52183,0,0,0-1.28.15015,5.78216,5.78216,0,0,0-.89014.27l.29-1.91016h5.34009v-2.48H290.96l-.75,5.3501,1.25,1.61011c.21-.11011.45-.23023.72-.3501a5.03346,5.03346,0,0,1,2.07007-.41992,2.73277,2.73277,0,0,1,1.17993.23974,2.1435,2.1435,0,0,1,.82007.66016,1.52177,1.52177,0,0,1,.3.92993,1.71432,1.71432,0,0,1-.29.98,1.87939,1.87939,0,0,1-.83008.65015,3.023,3.023,0,0,1-1.2.22,3.75814,3.75814,0,0,1-1.59-.36011,5.17919,5.17919,0,0,1-1.49-1.06006L289.61,421.25a5.83926,5.83926,0,0,0,2.04,1.48,6.41063,6.41063,0,0,0,2.67005.55,5.61054,5.61054,0,0,0,2.51-.56006,4.6729,4.6729,0,0,0,1.77991-1.53,3.71462,3.71462,0,0,0,.66-2.1499,3.86476,3.86476,0,0,0-.61011-2.18018A4.123,4.123,0,0,0,297.06006,415.41992Z" fill="#fff"/>
    <path d="M310.52,416.48A4.607,4.607,0,0,0,309.2,415.7a4.17962,4.17962,0,0,0-1-.24l3.23-3.08984-.55993-1.44019h-8.41v2.48l5.02.08008-2.92993,2.84985.71,1.62012a3.144,3.144,0,0,1,.49-.17993,4.26871,4.26871,0,0,1,.54-.12012,3.7644,3.7644,0,0,1,.58-.03979,3.29277,3.29277,0,0,1,1.04992.15991,1.95623,1.95623,0,0,1,.81006.5,1.25064,1.25064,0,0,1,.32007.90991,1.43485,1.43485,0,0,1-.33008.96,2.05433,2.05433,0,0,1-.87988.56006,3.61417,3.61417,0,0,1-1.16016.18018,2.83362,2.83362,0,0,1-1.22-.25,3.841,3.841,0,0,1-.98-.66016,5.339,5.339,0,0,1-.76-.89014l-2.11,1.51026a6.26421,6.26421,0,0,0,2.11,2.02978,5.81363,5.81363,0,0,0,2.93994.7002,6.1686,6.1686,0,0,0,2.58008-.53,4.65874,4.65874,0,0,0,1.83008-1.49,3.65866,3.65866,0,0,0,.68994-2.18994,3.32121,3.32121,0,0,0-.33008-1.46021A3.73913,3.73913,0,0,0,310.52,416.48Z" fill="#fff"/>
    <path d="M322.90991,410.92993H320.35l-6.59,7.47,1.15991,2.21h5.15015v2.55h2.83984v-2.55H325.26V418.24h-2.3501ZM320.07007,418.24h-2.99l2.99-3.5Z" fill="#fff"/>
    <path d="M336.03,416.48a4.607,4.607,0,0,0-1.32007-.78,4.17962,4.17962,0,0,0-1-.24l3.23-3.08984-.55994-1.44019h-8.42v2.48l5.03.08008-2.92993,2.84985.71,1.62012a3.144,3.144,0,0,1,.49-.17993,4.26871,4.26871,0,0,1,.54-.12012,3.6801,3.6801,0,0,1,.57995-.03979,3.29331,3.29331,0,0,1,1.04993.15991,1.95623,1.95623,0,0,1,.81006.5,1.25064,1.25064,0,0,1,.32007.90991,1.43485,1.43485,0,0,1-.33008.96,2.054,2.054,0,0,1-.88.56006,3.6129,3.6129,0,0,1-1.16.18018,2.83362,2.83362,0,0,1-1.22-.25,3.841,3.841,0,0,1-.98-.66016,5.339,5.339,0,0,1-.76-.89014l-2.11,1.51026a6.26312,6.26312,0,0,0,2.11,2.02978,5.81363,5.81363,0,0,0,2.93994.7002,6.1686,6.1686,0,0,0,2.58008-.53,4.73069,4.73069,0,0,0,1.83008-1.49,3.65034,3.65034,0,0,0,.67993-2.18994,3.3143,3.3143,0,0,0-.32007-1.46021A3.74087,3.74087,0,0,0,336.03,416.48Z" fill="#fff"/>
    <path d="M348.14,411.98a4.95727,4.95727,0,0,0-1.52-.90991,5.4633,5.4633,0,0,0-4.34.26,4.64224,4.64224,0,0,0-1.77,1.59985,4.18254,4.18254,0,0,0-.65,2.28,3.88914,3.88914,0,0,0,.52,1.93994,4.16423,4.16423,0,0,0,1.41,1.4502,3.64816,3.64816,0,0,0,1.95.54,3.72843,3.72843,0,0,0,1.27-.22022A4.01686,4.01686,0,0,0,345.45,418.74l-2.47,4.25.07007.16992h2.77l1.71-3.01c.25-.3999.48-.7998.71-1.22a12.99274,12.99274,0,0,0,.65-1.28979,7.69138,7.69138,0,0,0,.48-1.34009,5.30241,5.30241,0,0,0,.17-1.37012,3.62787,3.62787,0,0,0-.37012-1.61987A4.37608,4.37608,0,0,0,348.14,411.98Zm-1.56994,3.91992a1.94942,1.94942,0,0,1-.78.65015,2.654,2.654,0,0,1-1.2.25,2.30043,2.30043,0,0,1-1.13013-.26,1.94789,1.94789,0,0,1-.77-.66992,1.48748,1.48748,0,0,1-.28-.8501,1.64723,1.64723,0,0,1,.3-1,1.94917,1.94917,0,0,1,.8-.64014,2.76813,2.76813,0,0,1,1.1-.21,2.59623,2.59623,0,0,1,1.18.25,1.875,1.875,0,0,1,.77.66992,1.63912,1.63912,0,0,1,.28.93018A1.52455,1.52455,0,0,1,346.57007,415.8999Z" fill="#fff"/>
    <polygon points="351.83 410.93 351.83 413.5 357.4 413.5 353.16 423.16 356.11 423.16 360.68 412.33 360.4 410.93 351.83 410.93" fill="#fff"/>
    <path d="M370.52,415.41992a4.66322,4.66322,0,0,0-2.22-.52,6.25293,6.25293,0,0,0-2.16.42017l.28992-1.91016H371.76v-2.48h-7.34009l-.75,5.3501,1.25,1.61011c.21008-.11011.45008-.23023.72009-.3501a5.21975,5.21975,0,0,1,.92005-.3,5.01034,5.01034,0,0,1,1.1499-.11987,2.77982,2.77982,0,0,1,1.19006.23974,2.03944,2.03944,0,0,1,.80994.66016,1.52177,1.52177,0,0,1,.3.92993,1.64227,1.64227,0,0,1-.29.98,1.90727,1.90727,0,0,1-.82.65015,3.10853,3.10853,0,0,1-1.21008.22,3.7589,3.7589,0,0,1-1.59-.36011,5.18216,5.18216,0,0,1-1.49-1.06006L363.07007,421.25a5.83772,5.83772,0,0,0,2.03992,1.48,6.41094,6.41094,0,0,0,2.67.55,5.61054,5.61054,0,0,0,2.51-.56006,4.67328,4.67328,0,0,0,1.78-1.53A3.71539,3.71539,0,0,0,372.73,419.04a3.9403,3.9403,0,0,0-.6-2.18018A4.22455,4.22455,0,0,0,370.52,415.41992Z" fill="#fff"/>
    <path d="M207.79639,422.80078c-.67456-.28271-3.25293-4.60278-3.57264-5.83057a1.29926,1.29926,0,0,1,.77332-1.61718l.146-4.81934a4.738,4.738,0,0,0-3.51734,3.3689c-.775,3.23852,1.96118,8.82983,4.77417,11.25244s6.105.43872,6.105.43872l-3.41748-2.83984A1.61967,1.61967,0,0,1,207.79639,422.80078Z" fill="#fff"/>
    <path d="M206.77319,414.70264c.00782-.4751.05408-3.32666.05408-3.32666a1.11362,1.11362,0,0,0-.93835-.76221l-.07715,4.75244S206.76562,415.178,206.77319,414.70264Z" fill="#fff"/>
    <path d="M210.78247,421.9292a1.1136,1.1136,0,0,0-1.1831.249l3.64379,3.05225s.45435-.85962.08985-1.1648C212.96875,423.7605,210.78247,421.9292,210.78247,421.9292Z" fill="#fff"/>
    <polygon points="199.56 387.49 197.31 392.61 195.09 387.49 192.48 387.49 196.26 395.07 198.22 395.07 202.12 387.49 199.56 387.49" fill="#fff"/>
    <path d="M205.56006,393.01a1.64248,1.64248,0,0,0-1.13013-.34009,1.56481,1.56481,0,0,0-1.11987.38013,1.291,1.291,0,0,0-.01,1.84009,1.67637,1.67637,0,0,0,1.12988.32983,1.5062,1.5062,0,0,0,1.12012-.38013,1.27912,1.27912,0,0,0,.01-1.82983Z" fill="#fff"/>
    <path d="M216.87,395.07007V387.49H214.6v.90015a2.61209,2.61209,0,0,0-.53992-.43018,3.95281,3.95281,0,0,0-1.02-.45,4.09158,4.09158,0,0,0-1.24-.17017,4.28076,4.28076,0,0,0-2.09009.5,3.73506,3.73506,0,0,0-1.38989,1.40015,4.3327,4.3327,0,0,0-.01,4.06006,3.61119,3.61119,0,0,0,1.37988,1.38989,4.45685,4.45685,0,0,0,3.27.33008,3.74935,3.74935,0,0,0,1.01-.46,3.21366,3.21366,0,0,0,.59009-.49v1Zm-2.52-2.75a1.95925,1.95925,0,0,1-.77991.7,2.713,2.713,0,0,1-1.22009.25,2.58225,2.58225,0,0,1-1.19007-.25,1.9521,1.9521,0,0,1-.79992-.7,1.87247,1.87247,0,0,1-.27991-1.03A1.928,1.928,0,0,1,210.36,390.23a2.02663,2.02663,0,0,1,.79992-.7,2.57908,2.57908,0,0,1,1.19007-.25,2.70965,2.70965,0,0,1,1.22009.25,2.036,2.036,0,0,1,.77991.7,1.92812,1.92812,0,0,1,.28,1.06006A1.87262,1.87262,0,0,1,214.35,392.32007Z" fill="#fff"/>
    <path d="M226.83008,387.74a3.39368,3.39368,0,0,0-1.72009-.40015,3.5523,3.5523,0,0,0-2.63,1.1001c-.04.04-.08.09009-.12.13013l-.04993-1.08008h-2.16v7.58008h2.28992V390.8999a1.45668,1.45668,0,0,1,.12012-.56982,1.82007,1.82007,0,0,1,.36987-.53,2.1688,2.1688,0,0,1,.59009-.39014,1.92554,1.92554,0,0,1,.77-.1499,1.65946,1.65946,0,0,1,.87988.18994,1.41025,1.41025,0,0,1,.59009.57007,1.80406,1.80406,0,0,1,.2.87012v4.17993h2.28v-4.55a3.65559,3.65559,0,0,0-.36-1.66016A2.58453,2.58453,0,0,0,226.83008,387.74Z" fill="#fff"/>
    <polygon points="234.59 395.07 234.59 389.49 236.7 389.49 236.7 387.49 234.59 387.49 234.59 385.34 232.31 385.34 232.31 387.49 230.48 387.49 230.48 389.49 232.31 389.49 232.31 395.07 234.59 395.07" fill="#fff"/>
    <path d="M245.5,394.7a4.14727,4.14727,0,0,0,1.65991-1.3999,3.7506,3.7506,0,0,0,0-4.07007A4.20617,4.20617,0,0,0,245.5,387.83984a6.22784,6.22784,0,0,0-4.89,0,4.0703,4.0703,0,0,0-1.68006,1.39014,3.75191,3.75191,0,0,0,0,4.07007A4.01588,4.01588,0,0,0,240.61,394.7a6.11552,6.11552,0,0,0,4.89,0Zm-4.55-2.3999a1.86653,1.86653,0,0,1,0-2.06006,2.09619,2.09619,0,0,1,.87012-.7,2.924,2.924,0,0,1,1.24-.25,2.865,2.865,0,0,1,1.22.25,2.23277,2.23277,0,0,1,.87.7,1.86653,1.86653,0,0,1,0,2.06006,2.30517,2.30517,0,0,1-.87.68994,2.865,2.865,0,0,1-1.22.25,2.924,2.924,0,0,1-1.24-.25A2.15879,2.15879,0,0,1,240.95,392.30005Z" fill="#fff"/>
    <path d="M255.87,390.02a1.69874,1.69874,0,0,1,.21008.87012v4.17993H258.36v-4.55a3.65572,3.65572,0,0,0-.36-1.66016,2.66594,2.66594,0,0,0-1.06006-1.11987,3.34263,3.34263,0,0,0-1.72-.40015,3.55172,3.55172,0,0,0-2.62988,1.1001,1.268,1.268,0,0,0-.11011.13013l-.05-1.08008H250.26v7.58008h2.3V390.8999a1.45862,1.45862,0,0,1,.11987-.56982,1.64786,1.64786,0,0,1,.37012-.53,1.915,1.915,0,0,1,1.35986-.54,1.704,1.704,0,0,1,.88013.18994A1.38634,1.38634,0,0,1,255.87,390.02Z" fill="#fff"/>
    <path d="M262.89,383.56006a1.39186,1.39186,0,0,0-.99.33008,1.08849,1.08849,0,0,0-.36.83984,1.06851,1.06851,0,0,0,.36.87012,1.43354,1.43354,0,0,0,.99.30981,1.45322,1.45322,0,0,0,1-.32983,1.07191,1.07191,0,0,0,.37-.8501,1.06033,1.06033,0,0,0-.36-.85986A1.48781,1.48781,0,0,0,262.89,383.56006Z" fill="#fff"/>
    <rect x="261.75" y="387.48999" width="2.30005" height="7.58008" fill="#fff"/>
    <path d="M273.23,391.46a1.76783,1.76783,0,0,1-.1499.73,1.61662,1.61662,0,0,1-.42017.55,2.03946,2.03946,0,0,1-1.33984.49A1.79326,1.79326,0,0,1,270.38,393a1.28447,1.28447,0,0,1-.54992-.64014,2.75811,2.75811,0,0,1-.18006-1.05981V387.49h-2.28v4.2a4.39786,4.39786,0,0,0,.37,1.91016,2.73373,2.73373,0,0,0,1.06006,1.21,3.14155,3.14155,0,0,0,1.63989.40991,4.21649,4.21649,0,0,0,1.5-.26,3.43992,3.43992,0,0,0,1.13013-.7c.07995-.08008.15991-.17017.23-.25l.07,1.06006h2.14V387.49h-2.28Z" fill="#fff"/>
    <polygon points="284.67 387.49 281.03 390.63 281.03 384.51 278.82 384.51 278.82 395.07 281.03 395.07 281.03 392.95 282.29 391.92 284.91 395.07 287.6 395.07 283.85 390.64 287.7 387.49 284.67 387.49" fill="#fff"/>
    <path d="M292.16992,394.21c.01.02.03.03.05.05a3.45169,3.45169,0,0,0,1.16.67993,4.58333,4.58333,0,0,0,1.54993.25,4.00645,4.00645,0,0,0,2.04-.5,3.61411,3.61411,0,0,0,1.39-1.37988,4.01279,4.01279,0,0,0,.51-2.04,4.05791,4.05791,0,0,0-.5-2.04,3.52061,3.52061,0,0,0-1.38-1.37988,4.05657,4.05657,0,0,0-2.04-.5,4.462,4.462,0,0,0-1.53.25A4.07449,4.07449,0,0,0,292.25,388.24a1.46335,1.46335,0,0,0-.17993.15991l-.05-.91992h-2.16V398.2h2.30993Zm.20008-3.97a1.82613,1.82613,0,0,1,.78991-.71,3.02939,3.02939,0,0,1,2.41016,0,1.80726,1.80726,0,0,1,.77991.68994,2.10881,2.10881,0,0,1,0,2.1001,1.86227,1.86227,0,0,1-.78992.7,2.65415,2.65415,0,0,1-1.20007.25,2.68357,2.68357,0,0,1-1.20008-.25,1.806,1.806,0,0,1-.78991-.7,1.91744,1.91744,0,0,1-.27991-1.05A1.87188,1.87188,0,0,1,292.37,390.24Z" fill="#fff"/>
    <path d="M314.61,389.73a4.6925,4.6925,0,0,0-.4-1.95A4.58179,4.58179,0,0,0,313.04,386.21a5.55823,5.55823,0,0,0-1.89-1.05,8.027,8.027,0,0,0-2.55993-.36987,10.28512,10.28512,0,0,0-3.22009.49A8.40151,8.40151,0,0,0,302.7,386.73a6.63251,6.63251,0,0,0-2.46,5.3,5.80267,5.80267,0,0,0,.4,2.18994,4.94451,4.94451,0,0,0,1.17005,1.74,5.38,5.38,0,0,0,1.78,1.16016A6.25969,6.25969,0,0,0,305.88,397.53a7.56025,7.56025,0,0,0,1.41-.12012,6.99006,6.99006,0,0,0,1.24-.35986c.3999-.15015.84-.34009,1.32-.56006l-.52991-1.07007c-.41016.2002-.78.36011-1.1001.49a5.528,5.528,0,0,1-1.01.27,6.70565,6.70565,0,0,1-1.28.1001,5.242,5.242,0,0,1-1.76-.29,3.93605,3.93605,0,0,1-1.36987-.86011,3.701,3.701,0,0,1-.89014-1.33984,4.71015,4.71015,0,0,1-.31982-1.78,6.27044,6.27044,0,0,1,.5-2.55,5.22149,5.22149,0,0,1,1.40991-1.8999,6.23665,6.23665,0,0,1,2.18994-1.18018A8.98626,8.98626,0,0,1,308.51,385.97a6.40407,6.40407,0,0,1,2.56006.46A3.65894,3.65894,0,0,1,312.7,387.76a3.59118,3.59118,0,0,1,.57007,2.04,3.89532,3.89532,0,0,1-.18994,1.28979,3.25824,3.25824,0,0,1-.4801.97022,2.25352,2.25352,0,0,1-.67005.60986,1.56537,1.56537,0,0,1-.77.21.63073.63073,0,0,1-.3999-.10986.56377.56377,0,0,1-.21-.36011,1.44488,1.44488,0,0,1,.01-.61987l.76-3.84009H309.26l-.15.77a.97153.97153,0,0,0-.08-.13989,1.9697,1.9697,0,0,0-.75-.65015,2.4094,2.4094,0,0,0-1.1001-.24,3.4515,3.4515,0,0,0-1.56994.36011,4.13377,4.13377,0,0,0-1.24.96,4.69969,4.69969,0,0,0-.80994,1.32983,3.88532,3.88532,0,0,0-.29,1.43018,2.75564,2.75564,0,0,0,.34,1.37012,2.24188,2.24188,0,0,0,.93.8999,2.77665,2.77665,0,0,0,1.33.31006,3.11954,3.11954,0,0,0,1.23-.26026,3.94233,3.94233,0,0,0,1.1-.73974,3.32672,3.32672,0,0,0,.36011-.39014,1.4274,1.4274,0,0,0,.23.59009,1.76123,1.76123,0,0,0,.7.57983,2.37607,2.37607,0,0,0,1.07007.22022,3.78017,3.78017,0,0,0,2.84985-1.24024,4.4449,4.4449,0,0,0,.88013-1.46A5.48141,5.48141,0,0,0,314.61,389.73Zm-5.9.93994c-.02.11011-.05.21-.07.3a2.3962,2.3962,0,0,1-.47009.83008,2.35839,2.35839,0,0,1-.73.53,2.14166,2.14166,0,0,1-.85986.17993.9921.9921,0,0,1-1.01-1.04,2.13728,2.13728,0,0,1,.25-1.02,2.22969,2.22969,0,0,1,.68994-.8,1.79746,1.79746,0,0,1,1.06006-.31982,1.67476,1.67476,0,0,1,.66992.11987.92214.92214,0,0,1,.41992.3501.85955.85955,0,0,1,.1001.53A1.85319,1.85319,0,0,1,308.71,390.66992Z" fill="#fff"/>
    <path d="M322.56006,395.42993a1.7872,1.7872,0,0,1-.81006.75,2.71216,2.71216,0,0,1-1.25.27,4.72978,4.72978,0,0,1-1.11-.11987,4.81652,4.81652,0,0,1-.9-.27c-.27-.11011-.51-.22022-.73-.32007l-.77,1.63989a6.18191,6.18191,0,0,0,1.6001.68018,7.85723,7.85723,0,0,0,2.18994.27978,5.26509,5.26509,0,0,0,1.7-.25976,3.73087,3.73087,0,0,0,2.32007-2.12012,4.72539,4.72539,0,0,0,.32995-1.81982V387.49h-2.16l-.05.86011A1.80042,1.80042,0,0,0,322.48,388.02a5.8839,5.8839,0,0,0-.8-.37012,5.0763,5.0763,0,0,0-.86987-.23A3.95962,3.95962,0,0,0,320,387.33984a4.1734,4.1734,0,0,0-2.09009.5A3.66972,3.66972,0,0,0,316.49,389.21a3.97527,3.97527,0,0,0-.51,2.03,3.84055,3.84055,0,0,0,.49,1.97,3.46553,3.46553,0,0,0,1.38,1.33008,4.39283,4.39283,0,0,0,2.05.47,5.01493,5.01493,0,0,0,1.57-.24,3.62665,3.62665,0,0,0,1.21-.62012c.06006-.0498.11011-.09985.16016-.1499v.17993A2.569,2.569,0,0,1,322.56006,395.42993ZM322.62,392.29a1.92547,1.92547,0,0,1-.78992.7,2.71344,2.71344,0,0,1-1.20008.25,2.87741,2.87741,0,0,1-1.25-.25,2.07077,2.07077,0,0,1-.84-.7,1.99179,1.99179,0,0,1,0-2.07007,2.06882,2.06882,0,0,1,.84-.7,2.87711,2.87711,0,0,1,1.25-.26,2.69832,2.69832,0,0,1,1.21009.26,1.8355,1.8355,0,0,1,.77991.7,2.11878,2.11878,0,0,1,0,2.07007Z" fill="#fff"/>
    <path d="M342.06006,395.07007v-4.54a4.08168,4.08168,0,0,0-.32007-1.65015,2.343,2.343,0,0,0-.99-1.11987,3.48709,3.48709,0,0,0-1.79-.40991,3.9722,3.9722,0,0,0-1.05.13989,4.85063,4.85063,0,0,0-.93994.38013,4.3931,4.3931,0,0,0-.77.53979,3.2269,3.2269,0,0,0-.36987.37012,2.37238,2.37238,0,0,0-.37012-.62012A2.12578,2.12578,0,0,0,334.52,387.54a3.49245,3.49245,0,0,0-1.18994-.18994A4.08744,4.08744,0,0,0,332.25,387.49a4.04434,4.04434,0,0,0-.90991.36987,3.33966,3.33966,0,0,0-.7301.53028l-.09.08984-.04-.99h-2.16992v7.58008H330.61v-4.21021a1.2532,1.2532,0,0,1,.13-.53979,1.74245,1.74245,0,0,1,.37-.51,1.82474,1.82474,0,0,1,.57995-.38013,1.84949,1.84949,0,0,1,.74-.1499,2.00238,2.00238,0,0,1,.90015.17993,1.13558,1.13558,0,0,1,.52991.53,1.78744,1.78744,0,0,1,.17.78v4.3h2.3v-4.03a1.55292,1.55292,0,0,1,.1499-.68994,1.61549,1.61549,0,0,1,.42-.55,2.1044,2.1044,0,0,1,.65-.38013,2.17716,2.17716,0,0,1,.82-.13989,1.45454,1.45454,0,0,1,.78.18994,1.13323,1.13323,0,0,1,.46.53,1.88784,1.88784,0,0,1,.15.79v4.28Z" fill="#fff"/>
    <path d="M353.34009,395.07007V387.49h-2.27v.90015a2.61612,2.61612,0,0,0-.54-.43018,3.8813,3.8813,0,0,0-1.01-.45,4.18123,4.18123,0,0,0-1.24-.17017,4.22631,4.22631,0,0,0-2.09009.5A3.69183,3.69183,0,0,0,344.79,389.24a4.3327,4.3327,0,0,0-.01,4.06006,3.6379,3.6379,0,0,0,1.38989,1.38989,4.43085,4.43085,0,0,0,3.26.33008,3.74765,3.74765,0,0,0,1.01-.46,3.21332,3.21332,0,0,0,.59009-.49v1Zm-2.52-2.75a1.95953,1.95953,0,0,1-.78.7,2.71281,2.71281,0,0,1-1.22.25,2.58159,2.58159,0,0,1-1.19007-.25,1.95059,1.95059,0,0,1-.79992-.7,1.87254,1.87254,0,0,1-.28-1.03,1.928,1.928,0,0,1,.28-1.06006,2.025,2.025,0,0,1,.79992-.7,2.57843,2.57843,0,0,1,1.19007-.25,2.70947,2.70947,0,0,1,1.22.25,2.03625,2.03625,0,0,1,.78.7A1.92908,1.92908,0,0,1,351.1,391.29,1.87355,1.87355,0,0,1,350.82007,392.32007Z" fill="#fff"/>
    <rect x="356.72998" y="387.48999" width="2.30005" height="7.58008" fill="#fff"/>
    <path d="M358.88,383.87012a1.50522,1.50522,0,0,0-1.01-.31006,1.418,1.418,0,0,0-1,.33008,1.08061,1.08061,0,0,0-.35.83984,1.06289,1.06289,0,0,0,.35.87012,1.7235,1.7235,0,0,0,2-.02,1.0719,1.0719,0,0,0,.37-.8501A1.0603,1.0603,0,0,0,358.88,383.87012Z" fill="#fff"/>
    <rect x="362.48999" y="384.51001" width="2.28003" height="10.56006" fill="#fff"/>
    <path d="M368.02,393.05005a1.1789,1.1789,0,0,0-.4.8999,1.21323,1.21323,0,0,0,.38.94019,1.67672,1.67672,0,0,0,1.13.32983,1.50588,1.50588,0,0,0,1.12-.38013,1.158,1.158,0,0,0,.4-.88989,1.18618,1.18618,0,0,0-.39-.93994,1.64215,1.64215,0,0,0-1.13-.34009A1.53943,1.53943,0,0,0,368.02,393.05005Z" fill="#fff"/>
    <path d="M376.03,389.57007a2.70942,2.70942,0,0,1,1.2-.25,3.05189,3.05189,0,0,1,.92.12988,4.17427,4.17427,0,0,1,.82.34009,2.927,2.927,0,0,1,.67.47l1.24-1.6001a4.22378,4.22378,0,0,0-1.64-.98,6.60185,6.60185,0,0,0-2.17993-.34009,4.88219,4.88219,0,0,0-2.26.51026A4.05137,4.05137,0,0,0,373.22,389.25a3.80788,3.80788,0,0,0,0,4.04,4.04372,4.04372,0,0,0,1.6001,1.3999,4.97037,4.97037,0,0,0,2.30993.52,6.2268,6.2268,0,0,0,2.11-.33984,5.63807,5.63807,0,0,0,1.64-.8501l-1.22009-1.58008a3.74765,3.74765,0,0,1-.62988.38013,3.59089,3.59089,0,0,1-.8.28,3.83587,3.83587,0,0,1-1,.10986,2.77926,2.77926,0,0,1-1.18994-.24,1.80426,1.80426,0,0,1-.8-.68994,1.86073,1.86073,0,0,1-.29-1.01,1.8163,1.8163,0,0,1,.28-1.02A1.91683,1.91683,0,0,1,376.03,389.57007Z" fill="#fff"/>
    <path d="M389.54,387.83984a6.22805,6.22805,0,0,0-4.89,0,4.20036,4.20036,0,0,0-1.68,1.39014,3.75128,3.75128,0,0,0,0,4.07007,4.14186,4.14186,0,0,0,1.68,1.3999,6.11572,6.11572,0,0,0,4.89,0,4.081,4.081,0,0,0,1.65991-1.3999,3.699,3.699,0,0,0,0-4.07007A4.13771,4.13771,0,0,0,389.54,387.83984Zm-.3501,4.46021a2.15966,2.15966,0,0,1-.86987.68994,2.8652,2.8652,0,0,1-1.22009.25,2.92476,2.92476,0,0,1-1.24-.25,2.15921,2.15921,0,0,1-.87-.68994,1.86593,1.86593,0,0,1,0-2.06006,2.09658,2.09658,0,0,1,.87-.7,2.92476,2.92476,0,0,1,1.24-.25,2.8652,2.8652,0,0,1,1.22009.25,2.097,2.097,0,0,1,.86987.7,1.86593,1.86593,0,0,1,0,2.06006Z" fill="#fff"/>
    <path d="M407.65991,388.87988a2.363,2.363,0,0,0-1-1.11987,3.44748,3.44748,0,0,0-1.77991-.40991,3.96915,3.96915,0,0,0-1.04992.13989,4.59966,4.59966,0,0,0-.94007.38013,4.05221,4.05221,0,0,0-.77.53979,3.22831,3.22831,0,0,0-.37.37012,2.39345,2.39345,0,0,0-.38-.62012,2.04086,2.04086,0,0,0-.93006-.61987,3.53194,3.53194,0,0,0-1.18994-.18994,4.08816,4.08816,0,0,0-1.08008.13989,3.86909,3.86909,0,0,0-.90991.36987,3.1129,3.1129,0,0,0-.73.53028l-.09009.08984-.03992-.99h-2.17v7.58008h2.3v-4.21021a1.39336,1.39336,0,0,1,.12-.53979,1.78212,1.78212,0,0,1,.38-.51,1.91582,1.91582,0,0,1,1.32-.53,2.00217,2.00217,0,0,1,.9.17993,1.18334,1.18334,0,0,1,.53.53,1.7874,1.7874,0,0,1,.16992.78v4.3h2.29v-4.03a1.5531,1.5531,0,0,1,.15-.68994,1.64248,1.64248,0,0,1,.43006-.55,2.10224,2.10224,0,0,1,.6499-.38013A2.15991,2.15991,0,0,1,404.28,389.28a1.46755,1.46755,0,0,1,.79.18994,1.13392,1.13392,0,0,1,.46.53,1.8879,1.8879,0,0,1,.1499.79v4.28h2.3v-4.54A4.07949,4.07949,0,0,0,407.65991,388.87988Z" fill="#fff"/>
    <path d="M173.55225,391.59058l-7.13672-4.75757v9.62793a1.74227,1.74227,0,0,0,1.74218,1.74243h13.18262a1.7424,1.7424,0,0,0,1.74243-1.74243v-9.62525l-7.13659,4.75513A2.15809,2.15809,0,0,1,173.55225,391.59058Z" fill="#fff"/>
    <path d="M175.88525,389.78418l6.24683-4.16382H167.369l6.24414,4.16358A2.048,2.048,0,0,0,175.88525,389.78418Z" fill="#fff"/>
  </g>
</svg>
