<svg xmlns="http://www.w3.org/2000/svg" id="Layer_1" data-name="Layer 1" viewBox="128.99 120 683.09 159.4">
  <g>
    <rect x="197.01624" y="229.17578" width="17.01471" height="17.01489" fill="#fff"/>
    <rect x="221.76495" y="229.17578" width="17.01471" height="17.01489" fill="#fff"/>
    <rect x="197.01624" y="253.92456" width="17.01471" height="17.01489" fill="#fff"/>
    <rect x="221.76495" y="253.92456" width="17.01471" height="17.01489" fill="#fff"/>
    <polygon points="215.377 120.363 128.992 203.901 154.504 230.361 214.984 172.049 215.377 120.363" fill="#fff"/>
    <path d="M317.14,219.30005l-12.22,8.80981L314.17,216.22l-11.44-11.88989-8.25,5.10986,5.42-8.0498L288.46,189.5l-12.25,8.83008,9.28-11.92017L274.05,174.52l-8.28,5.13989,5.44-8.08984-11.43-11.88013-12.28,8.86011,9.3-11.96021L245.37,144.71l-8.31,5.16992,5.46-8.12988L221.59,120l-.33,51.95,93.67,96.94019,25.85-25.02Zm-3.03,27.75a4.5475,4.5475,0,1,1,6.43.11987A4.54876,4.54876,0,0,1,314.11,247.05005Z" fill="#fff"/>
    <path d="M217.97461,275.89526c-3.60773.0022-7.21545.12183-10.82318.3794a88.733,88.733,0,0,0-10.82318,1.37524,88.733,88.733,0,0,0,10.82318,1.37525c3.60773.25756,7.21545.37744,10.82318.37939q5.41159.004,10.82318-.37451A87.56659,87.56659,0,0,0,239.621,277.6499a87.56465,87.56465,0,0,0-10.82318-1.38012Q223.3862,275.88416,217.97461,275.89526Z" fill="#fff"/>
    <path d="M331.71307,261.53931q-3.34294,3.24426-6.42614,6.75683a66.31878,66.31878,0,0,0-5.733,7.47193,66.32572,66.32572,0,0,0,7.64733-5.49683q3.61386-2.96522,6.95411-6.2124,3.34807-3.23914,6.42956-6.75342a65.46853,65.46853,0,0,0,5.72962-7.47534,65.41291,65.41291,0,0,0-7.65064,5.49341Q335.05035,258.28907,331.71307,261.53931Z" fill="#fff"/>
    <path d="M381.23,190.41992h7.79L398.49,204.54h11.39l-10.44006-15.3501c.38013-.15991.75-.33008,1.11011-.52a13.45651,13.45651,0,0,0,5.29-4.84985,12.80777,12.80777,0,0,0,1.95-6.95A12.66382,12.66382,0,0,0,405.96,170.04a12.34185,12.34185,0,0,0-5.13989-4.56006,17.56478,17.56478,0,0,0-7.79-1.62988h-21.22V204.54H381.23Zm0-18.31006h10.3501a7.696,7.696,0,0,1,3.25.64014,5.46669,5.46669,0,0,1,2.24,1.8,4.61478,4.61478,0,0,1,.83984,2.78979A5.35877,5.35877,0,0,1,397.13,180.22a5.44511,5.44511,0,0,1-2.1,1.93994,6.19911,6.19911,0,0,1-2.99.7H381.23Z" fill="#fff"/>
    <path d="M460.30005,168.93994a22.38007,22.38007,0,0,0-7.49-4.45,28.08709,28.08709,0,0,0-9.57007-1.57007,27.11568,27.11568,0,0,0-9.47,1.6001,23.423,23.423,0,0,0-7.5,4.45,20.23376,20.23376,0,0,0-.03,30.11011,23.085,23.085,0,0,0,7.5,4.43994,27.36329,27.36329,0,0,0,9.56006,1.6001,27.661,27.661,0,0,0,9.51-1.57007,22.38007,22.38007,0,0,0,7.49-4.45,19.88793,19.88793,0,0,0,4.87988-6.71,20.36213,20.36213,0,0,0-4.87988-23.4502Zm-4.44006,19.73a11.15826,11.15826,0,0,1-2.78992,3.75,13.04553,13.04553,0,0,1-4.3,2.5,17.03943,17.03943,0,0,1-10.92993,0,13.97023,13.97023,0,0,1-4.36011-2.47,10.33009,10.33009,0,0,1-2.82007-3.75,11.88822,11.88822,0,0,1,0-9.36011,10.33428,10.33428,0,0,1,2.82007-3.75,14.38236,14.38236,0,0,1,4.36011-2.46972,16.94836,16.94836,0,0,1,10.8999,0,13.33865,13.33865,0,0,1,4.33008,2.5,11.35417,11.35417,0,0,1,2.78992,3.75,11.52034,11.52034,0,0,1,0,9.2998Z" fill="#fff"/>
    <polygon points="490.56 204.54 500.49 204.54 500.49 187.9 517.99 163.85 506.77 163.85 495.55 179.75 483.76 163.85 471.9 163.85 490.56 188.15 490.56 204.54" fill="#fff"/>
    <path d="M535.72,163.8501,517.35,204.54h9.88l3.32-7.43994h18.92l3.33008,7.43994h10.11987L544.61,163.8501Zm-1.85,25.80981,3.42-7.66992c.34-.84985.68994-1.68994,1.04-2.5.34985-.81006.68994-1.63989,1.0199-2.47.24011-.61011.47009-1.23.68005-1.83008q.29992.88514.62988,1.77c.31006.83008.63013,1.66992.96009,2.5.31994.83008.68005,1.66016,1.06994,2.47l3.46008,7.73Z" fill="#fff"/>
    <polygon points="582.79 163.85 572.91 163.85 572.91 204.54 605.46 204.54 605.46 195.82 582.79 195.82 582.79 163.85" fill="#fff"/>
    <path d="M383.23,245.05005a13.78061,13.78061,0,0,1,4.13-2.33008,14.31468,14.31468,0,0,1,4.79992-.81006A17.4999,17.4999,0,0,1,396.98,242.52,15.899,15.899,0,0,1,400.9,244.21a20.10108,20.10108,0,0,1,3.23,2.41016l5.80994-7.44019a19.91686,19.91686,0,0,0-4.67993-3.30981,26.598,26.598,0,0,0-6.01-2.27,28.49743,28.49743,0,0,0-15.9.7,21.75585,21.75585,0,0,0-7.44007,4.35986,21.04827,21.04827,0,0,0-5,6.67993,19.34253,19.34253,0,0,0-1.82983,8.43018,20.4839,20.4839,0,0,0,1.75,8.56982A19.24011,19.24011,0,0,0,375.77,269.02,22.40616,22.40616,0,0,0,383.21,273.3501a27.227,27.227,0,0,0,9.24,1.52,26.39461,26.39461,0,0,0,7-.93018,30.60862,30.60862,0,0,0,6.05-2.35986,20.699,20.699,0,0,0,4.33008-2.93018L405.12,261.03c-.89.7-1.92005,1.42993-3.08,2.17993a16.93746,16.93746,0,0,1-3.9,1.86011,15.03371,15.03371,0,0,1-4.88.73,17.8602,17.8602,0,0,1-5.38-.79,13.5836,13.5836,0,0,1-4.47009-2.32007,10.87551,10.87551,0,0,1-3.04992-3.78,11.16416,11.16416,0,0,1-1.11-5.03,11.55035,11.55035,0,0,1,1.08008-5.07983A10.87538,10.87538,0,0,1,383.23,245.05005Z" fill="#fff"/>
    <path d="M434.64,233.6001,416.28,274.28h9.87988l3.32007-7.44019H448.4l3.33,7.44019h10.11011L443.53,233.6001Zm-1.85,25.80981L436.21,251.73c.3501-.8501.7-1.67993,1.05-2.5.35-.81006.67993-1.62988,1.01-2.47.25-.61987.47-1.23.67993-1.84009.20007.59009.41,1.18994.63013,1.79.30993.83008.62988,1.66016.96,2.5q.49494,1.24512,1.08,2.46l3.46008,7.74Z" fill="#fff"/>
    <path d="M500.58008,258.41992a13.4796,13.4796,0,0,0,5.28992-4.85986,12.774,12.774,0,0,0,1.95007-6.93994A12.55872,12.55872,0,0,0,505.98,239.79a12.20917,12.20917,0,0,0-5.13989-4.56006,17.40174,17.40174,0,0,0-7.79-1.62988h-21.21V274.28H481.25V260.15991h7.79L498.52,274.28h11.38989L499.47,258.93994C499.85,258.78,500.22,258.60986,500.58008,258.41992ZM481.25,241.8501H491.6a7.81926,7.81926,0,0,1,3.25.63989,5.63139,5.63139,0,0,1,2.24011,1.8,4.6571,4.6571,0,0,1,.83984,2.79A5.311,5.311,0,0,1,497.15,249.96a5.51956,5.51956,0,0,1-2.09,1.95,6.32408,6.32408,0,0,1-3,.7H481.25Z" fill="#fff"/>
    <path d="M551.66992,235.33984A14.701,14.701,0,0,0,544.49,233.6001H522.92993V274.28h9.88013V261.03H543.85a15.06069,15.06069,0,0,0,7.5-1.86011,14.24574,14.24574,0,0,0,5.26-5.02,13.55361,13.55361,0,0,0,1.94006-7.24,12.6976,12.6976,0,0,0-1.86011-6.8A13.37884,13.37884,0,0,0,551.66992,235.33984Zm-4.22,14.4502a5.71,5.71,0,0,1-2.17993,1.87988,6.52289,6.52289,0,0,1-3.05005.7002h-9.59v-10.05h9.59a7.64644,7.64644,0,0,1,3.05005.57983,5.34255,5.34255,0,0,1,2.17993,1.63013,3.978,3.978,0,0,1,.82007,2.55A4.66012,4.66012,0,0,1,547.44995,249.79Z" fill="#fff"/>
    <polygon points="581.4 257.6 602.09 257.6 602.09 249.58 581.4 249.58 581.4 242.03 604.7 242.03 604.7 233.6 571.81 233.6 571.81 274.28 605.28 274.28 605.28 265.86 581.4 265.86 581.4 257.6" fill="#fff"/>
    <path d="M651.65991,247.55005q0,1.86.09009,3.59985c.06006,1.16016.14,2.3501.23,3.55.1001,1.2.21,2.42993.32007,3.69019.06995.71.1499,1.43994.26,2.1997L628.53,233.6001H619.35V274.28h9.59v-13.6001c0-1.34985-.01-2.59985-.03-3.74-.0199-1.1499-.06982-2.21-.1499-3.19995-.07007-.99-.16-1.97-.26-2.93994-.09009-.97-.19995-1.94019-.32007-2.92993-.01-.08008-.02-.15015-.02991-.23L651.94995,274.28H661.25V233.6001h-9.59009Z" fill="#fff"/>
    <polygon points="673.05 242.32 687.47 242.32 687.47 274.28 697.35 274.28 697.35 242.32 711.99 242.32 711.99 233.6 673.05 233.6 673.05 242.32" fill="#fff"/>
    <path d="M752.53,258.41992a13.48075,13.48075,0,0,0,5.29-4.85986,12.77381,12.77381,0,0,0,1.95-6.93994,12.63961,12.63961,0,0,0-1.83008-6.83008A12.23658,12.23658,0,0,0,752.79,235.23,17.40135,17.40135,0,0,0,745,233.6001H723.79V274.28H733.21V260.15991H741L750.47,274.28h11.39l-10.44007-15.3501A11.12741,11.12741,0,0,0,752.53,258.41992ZM733.21,241.8501h10.34009a7.86776,7.86776,0,0,1,3.26.63989,5.60009,5.60009,0,0,1,2.23,1.8,4.59658,4.59658,0,0,1,.85,2.79,5.31607,5.31607,0,0,1-.79,2.87988,5.51785,5.51785,0,0,1-2.09,1.95,6.31125,6.31125,0,0,1-2.99.7H733.21Z" fill="#fff"/>
    <polygon points="800.86 233.6 789.64 249.49 777.84 233.6 765.99 233.6 784.64 257.87 784.64 274.28 794.58 274.28 794.58 257.65 812.08 233.6 800.86 233.6" fill="#fff"/>
  </g>
</svg>